<svg width="1057" height="48" viewBox="0 0 1057 48" fill="none" xmlns="http://www.w3.org/2000/svg">
<path d="M557.594 28.478C557.234 28.754 556.778 28.946 556.226 29.054C555.674 29.162 555.086 29.216 554.462 29.216C553.706 29.216 552.998 29.09 552.338 28.838C551.678 28.574 551.102 28.178 550.61 27.65C550.118 27.122 549.728 26.45 549.44 25.634C549.152 24.806 549.008 23.828 549.008 22.7C549.008 21.524 549.164 20.528 549.476 19.712C549.8 18.884 550.22 18.212 550.736 17.696C551.264 17.168 551.852 16.784 552.5 16.544C553.148 16.304 553.808 16.184 554.48 16.184C555.2 16.184 555.788 16.226 556.244 16.31C556.7 16.382 557.09 16.484 557.414 16.616L557.054 17.93C556.478 17.654 555.656 17.516 554.588 17.516C554.096 17.516 553.61 17.606 553.13 17.786C552.65 17.966 552.218 18.26 551.834 18.668C551.462 19.076 551.162 19.61 550.934 20.27C550.706 20.93 550.592 21.74 550.592 22.7C550.592 23.564 550.7 24.32 550.916 24.968C551.132 25.616 551.426 26.156 551.798 26.588C552.182 27.02 552.626 27.344 553.13 27.56C553.646 27.776 554.204 27.884 554.804 27.884C555.344 27.884 555.812 27.83 556.208 27.722C556.616 27.614 556.958 27.476 557.234 27.308L557.594 28.478ZM565.177 25.022H561.109V29H559.669V20H561.109V23.762H565.177V20H566.617V29H565.177V25.022ZM569.246 20.666C569.702 20.39 570.23 20.186 570.83 20.054C571.442 19.922 572.078 19.856 572.738 19.856C573.362 19.856 573.86 19.94 574.232 20.108C574.616 20.276 574.904 20.498 575.096 20.774C575.3 21.038 575.432 21.332 575.492 21.656C575.564 21.98 575.6 22.304 575.6 22.628C575.6 23.348 575.582 24.05 575.546 24.734C575.51 25.418 575.492 26.066 575.492 26.678C575.492 27.122 575.51 27.542 575.546 27.938C575.582 28.334 575.648 28.7 575.744 29.036H574.682L574.304 27.776H574.214C574.106 27.944 573.968 28.112 573.8 28.28C573.644 28.436 573.452 28.58 573.224 28.712C572.996 28.832 572.732 28.934 572.432 29.018C572.132 29.102 571.79 29.144 571.406 29.144C571.022 29.144 570.662 29.084 570.326 28.964C570.002 28.844 569.72 28.676 569.48 28.46C569.24 28.232 569.048 27.962 568.904 27.65C568.772 27.338 568.706 26.984 568.706 26.588C568.706 26.06 568.814 25.622 569.03 25.274C569.246 24.914 569.546 24.632 569.93 24.428C570.326 24.212 570.794 24.062 571.334 23.978C571.886 23.882 572.492 23.834 573.152 23.834C573.32 23.834 573.482 23.834 573.638 23.834C573.806 23.834 573.974 23.846 574.142 23.87C574.178 23.51 574.196 23.186 574.196 22.898C574.196 22.238 574.064 21.776 573.8 21.512C573.536 21.248 573.056 21.116 572.36 21.116C572.156 21.116 571.934 21.134 571.694 21.17C571.466 21.194 571.226 21.236 570.974 21.296C570.734 21.344 570.5 21.41 570.272 21.494C570.056 21.566 569.864 21.65 569.696 21.746L569.246 20.666ZM571.802 27.884C572.138 27.884 572.438 27.842 572.702 27.758C572.966 27.662 573.194 27.548 573.386 27.416C573.578 27.272 573.734 27.116 573.854 26.948C573.986 26.78 574.082 26.618 574.142 26.462V24.968C573.974 24.956 573.8 24.95 573.62 24.95C573.452 24.938 573.284 24.932 573.116 24.932C572.744 24.932 572.378 24.956 572.018 25.004C571.67 25.04 571.358 25.118 571.082 25.238C570.818 25.346 570.602 25.502 570.434 25.706C570.278 25.898 570.2 26.144 570.2 26.444C570.2 26.864 570.35 27.212 570.65 27.488C570.95 27.752 571.334 27.884 571.802 27.884ZM579.256 20V22.448C579.256 22.772 579.274 23.066 579.31 23.33C579.346 23.582 579.418 23.804 579.526 23.996C579.634 24.176 579.79 24.32 579.994 24.428C580.198 24.524 580.468 24.572 580.804 24.572C581.344 24.572 581.788 24.512 582.136 24.392C582.484 24.272 582.748 24.14 582.928 23.996V20H584.368V29H582.928V25.22C582.736 25.34 582.448 25.472 582.064 25.616C581.692 25.76 581.176 25.832 580.516 25.832C580.072 25.832 579.682 25.784 579.346 25.688C579.01 25.592 578.728 25.424 578.5 25.184C578.272 24.944 578.098 24.626 577.978 24.23C577.87 23.834 577.816 23.336 577.816 22.736V20H579.256ZM587 20.666C587.456 20.39 587.984 20.186 588.584 20.054C589.196 19.922 589.832 19.856 590.492 19.856C591.116 19.856 591.614 19.94 591.986 20.108C592.37 20.276 592.658 20.498 592.85 20.774C593.054 21.038 593.186 21.332 593.246 21.656C593.318 21.98 593.354 22.304 593.354 22.628C593.354 23.348 593.336 24.05 593.3 24.734C593.264 25.418 593.246 26.066 593.246 26.678C593.246 27.122 593.264 27.542 593.3 27.938C593.336 28.334 593.402 28.7 593.498 29.036H592.436L592.058 27.776H591.968C591.86 27.944 591.722 28.112 591.554 28.28C591.398 28.436 591.206 28.58 590.978 28.712C590.75 28.832 590.486 28.934 590.186 29.018C589.886 29.102 589.544 29.144 589.16 29.144C588.776 29.144 588.416 29.084 588.08 28.964C587.756 28.844 587.474 28.676 587.234 28.46C586.994 28.232 586.802 27.962 586.658 27.65C586.526 27.338 586.46 26.984 586.46 26.588C586.46 26.06 586.568 25.622 586.784 25.274C587 24.914 587.3 24.632 587.684 24.428C588.08 24.212 588.548 24.062 589.088 23.978C589.64 23.882 590.246 23.834 590.906 23.834C591.074 23.834 591.236 23.834 591.392 23.834C591.56 23.834 591.728 23.846 591.896 23.87C591.932 23.51 591.95 23.186 591.95 22.898C591.95 22.238 591.818 21.776 591.554 21.512C591.29 21.248 590.81 21.116 590.114 21.116C589.91 21.116 589.688 21.134 589.448 21.17C589.22 21.194 588.98 21.236 588.728 21.296C588.488 21.344 588.254 21.41 588.026 21.494C587.81 21.566 587.618 21.65 587.45 21.746L587 20.666ZM589.556 27.884C589.892 27.884 590.192 27.842 590.456 27.758C590.72 27.662 590.948 27.548 591.14 27.416C591.332 27.272 591.488 27.116 591.608 26.948C591.74 26.78 591.836 26.618 591.896 26.462V24.968C591.728 24.956 591.554 24.95 591.374 24.95C591.206 24.938 591.038 24.932 590.87 24.932C590.498 24.932 590.132 24.956 589.772 25.004C589.424 25.04 589.112 25.118 588.836 25.238C588.572 25.346 588.356 25.502 588.188 25.706C588.032 25.898 587.954 26.144 587.954 26.444C587.954 26.864 588.104 27.212 588.404 27.488C588.704 27.752 589.088 27.884 589.556 27.884ZM600.916 21.26H598.306C598.27 21.764 598.234 22.31 598.198 22.898C598.162 23.474 598.108 24.056 598.036 24.644C597.964 25.22 597.868 25.778 597.748 26.318C597.628 26.846 597.472 27.314 597.28 27.722C597.1 28.13 596.872 28.46 596.596 28.712C596.332 28.952 596.014 29.072 595.642 29.072C595.414 29.072 595.216 29.06 595.048 29.036C594.88 29.012 594.729 28.97 594.597 28.91L594.814 27.704C594.958 27.752 595.114 27.776 595.281 27.776C595.522 27.776 595.738 27.674 595.93 27.47C596.122 27.266 596.29 26.882 596.434 26.318C596.578 25.742 596.698 24.95 596.794 23.942C596.89 22.934 596.956 21.62 596.992 20H602.356V29H600.916V21.26ZM604.982 20.666C605.438 20.39 605.966 20.186 606.566 20.054C607.178 19.922 607.814 19.856 608.474 19.856C609.098 19.856 609.596 19.94 609.968 20.108C610.352 20.276 610.64 20.498 610.832 20.774C611.036 21.038 611.168 21.332 611.228 21.656C611.3 21.98 611.336 22.304 611.336 22.628C611.336 23.348 611.318 24.05 611.282 24.734C611.246 25.418 611.228 26.066 611.228 26.678C611.228 27.122 611.246 27.542 611.282 27.938C611.318 28.334 611.384 28.7 611.48 29.036H610.418L610.04 27.776H609.95C609.842 27.944 609.704 28.112 609.536 28.28C609.38 28.436 609.188 28.58 608.96 28.712C608.732 28.832 608.468 28.934 608.168 29.018C607.868 29.102 607.526 29.144 607.142 29.144C606.758 29.144 606.398 29.084 606.062 28.964C605.738 28.844 605.456 28.676 605.216 28.46C604.976 28.232 604.784 27.962 604.64 27.65C604.508 27.338 604.442 26.984 604.442 26.588C604.442 26.06 604.55 25.622 604.766 25.274C604.982 24.914 605.282 24.632 605.666 24.428C606.062 24.212 606.53 24.062 607.07 23.978C607.622 23.882 608.228 23.834 608.888 23.834C609.056 23.834 609.218 23.834 609.374 23.834C609.542 23.834 609.71 23.846 609.878 23.87C609.914 23.51 609.932 23.186 609.932 22.898C609.932 22.238 609.8 21.776 609.536 21.512C609.272 21.248 608.792 21.116 608.096 21.116C607.892 21.116 607.67 21.134 607.43 21.17C607.202 21.194 606.962 21.236 606.71 21.296C606.47 21.344 606.236 21.41 606.008 21.494C605.792 21.566 605.6 21.65 605.432 21.746L604.982 20.666ZM607.538 27.884C607.874 27.884 608.174 27.842 608.438 27.758C608.702 27.662 608.93 27.548 609.122 27.416C609.314 27.272 609.47 27.116 609.59 26.948C609.722 26.78 609.818 26.618 609.878 26.462V24.968C609.71 24.956 609.536 24.95 609.356 24.95C609.188 24.938 609.02 24.932 608.852 24.932C608.48 24.932 608.114 24.956 607.754 25.004C607.406 25.04 607.094 25.118 606.818 25.238C606.554 25.346 606.338 25.502 606.17 25.706C606.014 25.898 605.936 26.144 605.936 26.444C605.936 26.864 606.086 27.212 606.386 27.488C606.686 27.752 607.07 27.884 607.538 27.884ZM626.354 31.286H625.382L625.112 29H618.344L618.074 31.286H617.102V27.74H618.164C618.26 27.608 618.386 27.374 618.542 27.038C618.698 26.69 618.848 26.21 618.992 25.598C619.148 24.974 619.28 24.206 619.388 23.294C619.508 22.37 619.58 21.272 619.604 20H625.04V27.74H626.354V31.286ZM623.6 27.74V21.26H620.9C620.876 21.764 620.834 22.316 620.774 22.916C620.714 23.504 620.63 24.098 620.522 24.698C620.426 25.286 620.3 25.844 620.144 26.372C619.988 26.9 619.808 27.356 619.604 27.74H623.6ZM634.706 28.28C634.346 28.568 633.89 28.796 633.338 28.964C632.798 29.132 632.222 29.216 631.61 29.216C630.926 29.216 630.332 29.108 629.828 28.892C629.324 28.664 628.91 28.346 628.586 27.938C628.262 27.518 628.022 27.02 627.866 26.444C627.71 25.868 627.632 25.22 627.632 24.5C627.632 22.964 627.974 21.794 628.658 20.99C629.342 20.186 630.32 19.784 631.592 19.784C632 19.784 632.408 19.832 632.816 19.928C633.224 20.012 633.59 20.18 633.914 20.432C634.238 20.684 634.502 21.044 634.706 21.512C634.91 21.968 635.012 22.574 635.012 23.33C635.012 23.726 634.976 24.164 634.904 24.644H629.126C629.126 25.172 629.18 25.64 629.288 26.048C629.396 26.456 629.564 26.804 629.792 27.092C630.02 27.368 630.314 27.584 630.674 27.74C631.046 27.884 631.496 27.956 632.024 27.956C632.432 27.956 632.84 27.884 633.248 27.74C633.656 27.596 633.962 27.428 634.166 27.236L634.706 28.28ZM631.61 21.044C630.902 21.044 630.332 21.23 629.9 21.602C629.48 21.974 629.228 22.61 629.144 23.51H633.608C633.608 22.598 633.434 21.962 633.086 21.602C632.738 21.23 632.246 21.044 631.61 21.044ZM637.277 29V20H638.717V27.74H641.795V20H643.235V27.74H646.313V20H647.753V29H637.277ZM657.101 28.28C656.741 28.568 656.285 28.796 655.733 28.964C655.193 29.132 654.617 29.216 654.005 29.216C653.321 29.216 652.727 29.108 652.223 28.892C651.719 28.664 651.305 28.346 650.981 27.938C650.657 27.518 650.417 27.02 650.261 26.444C650.105 25.868 650.027 25.22 650.027 24.5C650.027 22.964 650.369 21.794 651.053 20.99C651.737 20.186 652.715 19.784 653.987 19.784C654.395 19.784 654.803 19.832 655.211 19.928C655.619 20.012 655.985 20.18 656.309 20.432C656.633 20.684 656.897 21.044 657.101 21.512C657.305 21.968 657.407 22.574 657.407 23.33C657.407 23.726 657.371 24.164 657.299 24.644H651.521C651.521 25.172 651.575 25.64 651.683 26.048C651.791 26.456 651.959 26.804 652.187 27.092C652.415 27.368 652.709 27.584 653.069 27.74C653.441 27.884 653.891 27.956 654.419 27.956C654.827 27.956 655.235 27.884 655.643 27.74C656.051 27.596 656.357 27.428 656.561 27.236L657.101 28.28ZM654.005 21.044C653.297 21.044 652.727 21.23 652.295 21.602C651.875 21.974 651.623 22.61 651.539 23.51H656.003C656.003 22.598 655.829 21.962 655.481 21.602C655.133 21.23 654.641 21.044 654.005 21.044ZM659.671 20.018C660.091 19.994 660.529 19.964 660.985 19.928C661.453 19.892 662.029 19.874 662.713 19.874C663.901 19.874 664.753 20.06 665.269 20.432C665.785 20.792 666.043 21.344 666.043 22.088C666.043 22.508 665.917 22.922 665.665 23.33C665.425 23.726 665.023 24.02 664.459 24.212V24.284C665.167 24.416 665.665 24.662 665.953 25.022C666.241 25.382 666.385 25.862 666.385 26.462C666.385 27.398 666.049 28.076 665.377 28.496C664.705 28.916 663.697 29.126 662.353 29.126C661.849 29.126 661.381 29.108 660.949 29.072C660.517 29.048 660.091 29.018 659.671 28.982V20.018ZM661.111 27.794C661.339 27.818 661.561 27.836 661.777 27.848C662.005 27.86 662.269 27.866 662.569 27.866C663.373 27.866 663.967 27.752 664.351 27.524C664.747 27.296 664.945 26.906 664.945 26.354C664.945 25.922 664.777 25.574 664.441 25.31C664.117 25.034 663.535 24.896 662.695 24.896H661.111V27.794ZM662.875 23.798C663.091 23.798 663.301 23.762 663.505 23.69C663.709 23.618 663.889 23.522 664.045 23.402C664.213 23.27 664.345 23.12 664.441 22.952C664.549 22.784 664.603 22.604 664.603 22.412C664.603 21.932 664.459 21.602 664.171 21.422C663.883 21.23 663.379 21.134 662.659 21.134C662.275 21.134 661.969 21.14 661.741 21.152C661.525 21.164 661.315 21.176 661.111 21.188V23.798H662.875ZM670.094 27.74C670.538 27.812 670.964 27.848 671.372 27.848C672.128 27.848 672.656 27.704 672.956 27.416C673.256 27.116 673.406 26.696 673.406 26.156C673.406 25.676 673.256 25.28 672.956 24.968C672.668 24.656 672.158 24.5 671.426 24.5C671.222 24.5 671 24.506 670.76 24.518C670.52 24.53 670.298 24.566 670.094 24.626V27.74ZM670.094 23.438C670.382 23.39 670.658 23.36 670.922 23.348C671.186 23.324 671.438 23.312 671.678 23.312C672.29 23.312 672.8 23.384 673.208 23.528C673.628 23.66 673.964 23.846 674.216 24.086C674.468 24.326 674.642 24.614 674.738 24.95C674.846 25.274 674.9 25.622 674.9 25.994C674.9 27.086 674.594 27.878 673.982 28.37C673.382 28.862 672.404 29.108 671.048 29.108C670.28 29.108 669.482 29.072 668.654 29V20H670.094V23.438ZM676.322 20H677.762V29H676.322V20ZM687.106 28.28C686.746 28.568 686.29 28.796 685.738 28.964C685.198 29.132 684.622 29.216 684.01 29.216C683.326 29.216 682.732 29.108 682.228 28.892C681.724 28.664 681.31 28.346 680.986 27.938C680.662 27.518 680.422 27.02 680.266 26.444C680.11 25.868 680.032 25.22 680.032 24.5C680.032 22.964 680.374 21.794 681.058 20.99C681.742 20.186 682.72 19.784 683.992 19.784C684.4 19.784 684.808 19.832 685.216 19.928C685.624 20.012 685.99 20.18 686.314 20.432C686.638 20.684 686.902 21.044 687.106 21.512C687.31 21.968 687.412 22.574 687.412 23.33C687.412 23.726 687.376 24.164 687.304 24.644H681.526C681.526 25.172 681.58 25.64 681.688 26.048C681.796 26.456 681.964 26.804 682.192 27.092C682.42 27.368 682.714 27.584 683.074 27.74C683.446 27.884 683.896 27.956 684.424 27.956C684.832 27.956 685.24 27.884 685.648 27.74C686.056 27.596 686.362 27.428 686.566 27.236L687.106 28.28ZM684.01 21.044C683.302 21.044 682.732 21.23 682.3 21.602C681.88 21.974 681.628 22.61 681.544 23.51H686.008C686.008 22.598 685.834 21.962 685.486 21.602C685.138 21.23 684.646 21.044 684.01 21.044Z" fill="#333333"/>
<path d="M13.59 26.21H5.91V35H1.8V14H5.91V22.55H13.59V14H17.7V35H13.59V26.21ZM31.691 30.35H25.241L23.651 35H19.541L27.101 13.85H30.131L37.691 35H33.371L31.691 30.35ZM26.291 27.05H30.791L29.231 22.37L28.601 19.07H28.451L27.821 22.4L26.291 27.05ZM51.7451 23.36L51.9851 20.63H51.8351L50.4251 23.45L42.5951 35H39.5051V14H43.6151V25.43L43.3151 28.25H43.4951L44.9651 25.34L52.7951 14H55.8551V35H51.7451V23.36ZM45.8951 8.78C45.9751 9.42 46.2051 9.88 46.5851 10.16C46.9851 10.44 47.4951 10.58 48.1151 10.58C49.4551 10.58 50.1951 9.99 50.3351 8.81L53.6651 9.32C53.4451 10.58 52.8651 11.5 51.9251 12.08C51.0051 12.66 49.7251 12.95 48.0851 12.95C47.2651 12.95 46.5151 12.89 45.8351 12.77C45.1551 12.65 44.5551 12.46 44.0351 12.2C43.5351 11.92 43.1151 11.55 42.7751 11.09C42.4551 10.63 42.2551 10.06 42.1751 9.38L45.8951 8.78ZM77.9055 38.75H74.9955L74.5455 35H61.0455L60.5955 38.75H57.6855V31.34H59.9055C60.0455 31.12 60.2755 30.63 60.5955 29.87C60.9155 29.11 61.2355 28.04 61.5555 26.66C61.8755 25.26 62.1455 23.52 62.3655 21.44C62.5855 19.34 62.6855 16.86 62.6655 14H75.2355V31.34H77.9055V38.75ZM71.1255 31.34V17.66H66.4755C66.3555 21.22 66.0655 24.14 65.6055 26.42C65.1655 28.68 64.7155 30.32 64.2555 31.34H71.1255ZM80.2277 14H92.6777V17.66H84.3377V22.55H91.9277V26.21H84.3377V31.34H92.8277V35H80.2277V14ZM107.692 26.21H100.012V35H95.9016V14H100.012V22.55H107.692V14H111.802V35H107.692V26.21ZM114.783 24.5C114.783 21 115.553 18.31 117.093 16.43C118.633 14.53 120.833 13.58 123.693 13.58C125.193 13.58 126.503 13.84 127.623 14.36C128.743 14.88 129.673 15.62 130.413 16.58C131.153 17.54 131.703 18.69 132.063 20.03C132.423 21.37 132.603 22.86 132.603 24.5C132.603 28 131.823 30.7 130.263 32.6C128.723 34.48 126.533 35.42 123.693 35.42C122.173 35.42 120.853 35.16 119.733 34.64C118.613 34.12 117.683 33.38 116.943 32.42C116.223 31.46 115.683 30.31 115.323 28.97C114.963 27.63 114.783 26.14 114.783 24.5ZM119.103 24.5C119.103 25.56 119.193 26.54 119.373 27.44C119.553 28.32 119.823 29.08 120.183 29.72C120.563 30.36 121.043 30.86 121.623 31.22C122.203 31.58 122.893 31.76 123.693 31.76C125.153 31.76 126.283 31.19 127.083 30.05C127.883 28.91 128.283 27.06 128.283 24.5C128.283 23.48 128.193 22.53 128.013 21.65C127.853 20.77 127.593 20 127.233 19.34C126.873 18.68 126.403 18.17 125.823 17.81C125.243 17.43 124.533 17.24 123.693 17.24C122.233 17.24 121.103 17.83 120.303 19.01C119.503 20.17 119.103 22 119.103 24.5ZM154.957 17.66H146.857V35H142.747V14H154.957V17.66ZM155.183 24.5C155.183 21 155.953 18.31 157.493 16.43C159.033 14.53 161.233 13.58 164.093 13.58C165.593 13.58 166.903 13.84 168.023 14.36C169.143 14.88 170.073 15.62 170.813 16.58C171.553 17.54 172.103 18.69 172.463 20.03C172.823 21.37 173.003 22.86 173.003 24.5C173.003 28 172.223 30.7 170.663 32.6C169.123 34.48 166.933 35.42 164.093 35.42C162.573 35.42 161.253 35.16 160.133 34.64C159.013 34.12 158.083 33.38 157.343 32.42C156.623 31.46 156.083 30.31 155.723 28.97C155.363 27.63 155.183 26.14 155.183 24.5ZM159.503 24.5C159.503 25.56 159.593 26.54 159.773 27.44C159.953 28.32 160.223 29.08 160.583 29.72C160.963 30.36 161.443 30.86 162.023 31.22C162.603 31.58 163.293 31.76 164.093 31.76C165.553 31.76 166.683 31.19 167.483 30.05C168.283 28.91 168.683 27.06 168.683 24.5C168.683 23.48 168.593 22.53 168.413 21.65C168.253 20.77 167.993 20 167.633 19.34C167.273 18.68 166.803 18.17 166.223 17.81C165.643 17.43 164.933 17.24 164.093 17.24C162.633 17.24 161.503 17.83 160.703 19.01C159.903 20.17 159.503 22 159.503 24.5ZM190.161 34.13C189.521 34.59 188.701 34.92 187.701 35.12C186.721 35.32 185.711 35.42 184.671 35.42C183.411 35.42 182.211 35.23 181.071 34.85C179.951 34.45 178.961 33.82 178.101 32.96C177.241 32.08 176.551 30.95 176.031 29.57C175.531 28.17 175.281 26.48 175.281 24.5C175.281 22.44 175.561 20.72 176.121 19.34C176.701 17.94 177.441 16.82 178.341 15.98C179.261 15.12 180.281 14.51 181.401 14.15C182.521 13.77 183.641 13.58 184.761 13.58C185.961 13.58 186.971 13.66 187.791 13.82C188.631 13.98 189.321 14.17 189.861 14.39L189.051 17.87C188.591 17.65 188.041 17.49 187.401 17.39C186.781 17.29 186.021 17.24 185.121 17.24C183.461 17.24 182.121 17.83 181.101 19.01C180.101 20.19 179.601 22.02 179.601 24.5C179.601 25.58 179.721 26.57 179.961 27.47C180.201 28.35 180.561 29.11 181.041 29.75C181.541 30.37 182.151 30.86 182.871 31.22C183.611 31.56 184.461 31.73 185.421 31.73C186.321 31.73 187.081 31.64 187.701 31.46C188.321 31.28 188.861 31.05 189.321 30.77L190.161 34.13ZM206.29 17.66H200.17V35H196.06V17.66H189.91V14H206.29V17.66ZM220.671 23.36L220.911 20.63H220.761L219.351 23.45L211.521 35H208.431V14H212.541V25.43L212.241 28.25H212.421L213.891 25.34L221.721 14H224.781V35H220.671V23.36ZM240.201 26.21H232.521V35H228.411V14H232.521V22.55H240.201V14H244.311V35H240.201V26.21ZM260.192 23.36L260.432 20.63H260.282L258.872 23.45L251.042 35H247.952V14H252.062V25.43L251.762 28.25H251.942L253.412 25.34L261.242 14H264.302V35H260.192V23.36ZM286.083 38.75H283.173L282.723 35H267.933V14H272.043V31.34H279.273V14H283.383V31.34H286.083V38.75ZM289.372 22.16C289.372 21.46 289.592 20.91 290.032 20.51C290.472 20.09 291.052 19.88 291.772 19.88C292.532 19.88 293.132 20.09 293.572 20.51C294.012 20.91 294.232 21.46 294.232 22.16C294.232 22.86 294.012 23.42 293.572 23.84C293.132 24.26 292.532 24.47 291.772 24.47C291.052 24.47 290.472 24.26 290.032 23.84C289.592 23.42 289.372 22.86 289.372 22.16ZM289.372 33.02C289.372 32.32 289.592 31.77 290.032 31.37C290.472 30.95 291.052 30.74 291.772 30.74C292.532 30.74 293.132 30.95 293.572 31.37C294.012 31.77 294.232 32.32 294.232 33.02C294.232 33.72 294.012 34.28 293.572 34.7C293.132 35.12 292.532 35.33 291.772 35.33C291.052 35.33 290.472 35.12 290.032 34.7C289.592 34.28 289.372 33.72 289.372 33.02ZM309.457 32.12C310.697 32.12 311.637 31.79 312.277 31.13C312.937 30.47 313.267 29.67 313.267 28.73C313.267 27.59 312.927 26.75 312.247 26.21C311.567 25.67 310.497 25.4 309.037 25.4H306.877V23.33L310.507 18.38L312.217 17.03L309.847 17.3H304.807V14H316.267V16.13L312.037 21.8L310.717 22.61V22.76L311.977 22.58C312.677 22.64 313.337 22.8 313.957 23.06C314.597 23.32 315.147 23.7 315.607 24.2C316.087 24.68 316.467 25.28 316.747 26C317.027 26.72 317.167 27.55 317.167 28.49C317.167 29.67 316.967 30.69 316.567 31.55C316.187 32.41 315.647 33.13 314.947 33.71C314.267 34.29 313.467 34.72 312.547 35C311.627 35.28 310.637 35.42 309.577 35.42C308.697 35.42 307.787 35.34 306.847 35.18C305.907 35.02 305.147 34.79 304.567 34.49L305.617 31.25C306.137 31.51 306.707 31.72 307.327 31.88C307.967 32.04 308.677 32.12 309.457 32.12ZM321.078 29.87C321.078 29.17 321.168 28.55 321.348 28.01C321.528 27.45 321.778 26.95 322.098 26.51C322.438 26.05 322.828 25.64 323.268 25.28C323.728 24.92 324.218 24.59 324.738 24.29C323.758 23.67 322.988 22.96 322.428 22.16C321.868 21.34 321.588 20.33 321.588 19.13C321.588 18.35 321.728 17.62 322.008 16.94C322.308 16.26 322.728 15.67 323.268 15.17C323.828 14.67 324.498 14.28 325.278 14C326.058 13.72 326.938 13.58 327.918 13.58C328.818 13.58 329.638 13.7 330.378 13.94C331.118 14.18 331.748 14.52 332.268 14.96C332.808 15.4 333.218 15.94 333.498 16.58C333.798 17.2 333.948 17.89 333.948 18.65C333.948 19.83 333.678 20.83 333.138 21.65C332.618 22.47 331.848 23.22 330.828 23.9C332.028 24.6 332.928 25.37 333.528 26.21C334.148 27.05 334.458 28.13 334.458 29.45C334.458 30.35 334.288 31.17 333.948 31.91C333.628 32.63 333.168 33.25 332.568 33.77C331.968 34.29 331.248 34.7 330.408 35C329.568 35.28 328.648 35.42 327.648 35.42C326.648 35.42 325.738 35.28 324.918 35C324.118 34.74 323.428 34.37 322.848 33.89C322.288 33.41 321.848 32.83 321.528 32.15C321.228 31.47 321.078 30.71 321.078 29.87ZM330.738 29.48C330.738 29.02 330.628 28.6 330.408 28.22C330.188 27.84 329.898 27.5 329.538 27.2C329.198 26.88 328.808 26.59 328.368 26.33C327.948 26.07 327.518 25.82 327.078 25.58C326.138 26.12 325.488 26.71 325.128 27.35C324.788 27.97 324.618 28.59 324.618 29.21C324.618 30.01 324.888 30.7 325.428 31.28C325.988 31.84 326.758 32.12 327.738 32.12C328.638 32.12 329.358 31.9 329.898 31.46C330.458 31.02 330.738 30.36 330.738 29.48ZM325.308 19.19C325.308 19.67 325.398 20.09 325.578 20.45C325.758 20.81 325.998 21.13 326.298 21.41C326.618 21.67 326.968 21.92 327.348 22.16C327.748 22.38 328.158 22.59 328.578 22.79C329.778 21.77 330.378 20.65 330.378 19.43C330.378 18.59 330.128 17.96 329.628 17.54C329.148 17.1 328.558 16.88 327.858 16.88C326.978 16.88 326.328 17.11 325.908 17.57C325.508 18.03 325.308 18.57 325.308 19.19Z" fill="black"/>
<rect x="530" y="1" width="285" height="46" rx="3" stroke="#E6E6E6" stroke-width="2"/>
<rect x="898" y="1" width="46" height="46" rx="3" stroke="#E6E6E6" stroke-width="2"/>
<rect x="954" y="1" width="46" height="46" rx="3" stroke="#E6E6E6" stroke-width="2"/>
<rect x="1010" y="1" width="46" height="46" rx="3" stroke="black" stroke-width="2"/>
<path d="M985 29H969V31H985V29Z" fill="black"/>
<path d="M983 19V25H971V19H983ZM985 17H969V27H985V17Z" fill="black"/>
<path d="M917 17H913V23H917V17Z" fill="black"/>
<path d="M929 17H925V23H929V17Z" fill="black"/>
<path d="M923 17H919V23H923V17Z" fill="black"/>
<path d="M917 25H913V31H917V25Z" fill="black"/>
<path d="M929 25H925V31H929V25Z" fill="black"/>
<path d="M923 25H919V31H923V25Z" fill="black"/>
<g opacity="0.3" clip-path="url(#clip0_476:29)">
<path d="M789.6 27.7001L794.7 22.4001C795 22.1001 795 21.5001 794.7 21.2001C794.4 20.9001 793.8 20.9001 793.5 21.2001L789 25.9001L784.5 21.2001C784.2 20.9001 783.6 20.9001 783.3 21.2001C783.1 21.3001 783 21.6001 783 21.8001C783 22.0001 783.1 22.2001 783.3 22.4001L788.4 27.7001C788.7 28.1001 789.3 28.1001 789.6 27.7001Z" fill="black"/>
</g>
<path d="M1027 17H1025V19H1027V17Z" fill="black"/>
<path d="M1041 17H1029V19H1041V17Z" fill="black"/>
<path d="M1027 21H1025V23H1027V21Z" fill="black"/>
<path d="M1041 21H1029V23H1041V21Z" fill="black"/>
<path d="M1027 25H1025V27H1027V25Z" fill="black"/>
<path d="M1041 25H1029V27H1041V25Z" fill="black"/>
<path d="M1027 29H1025V31H1027V29Z" fill="black"/>
<path d="M1041 29H1029V31H1041V29Z" fill="black"/>
<defs>
<clipPath id="clip0_476:29">
<rect width="12" height="7" fill="white" transform="translate(783 21)"/>
</clipPath>
</defs>
</svg>
